<?xml version="1.0" standalone="no"?>
<!DOCTYPE svg PUBLIC "-//W3C//DTD SVG 20010904//EN"
 "http://www.w3.org/TR/2001/REC-SVG-20010904/DTD/svg10.dtd">
<svg version="1.0" xmlns="http://www.w3.org/2000/svg"
 width="564.000000pt" height="525.000000pt" viewBox="0 0 564.000000 525.000000"
 preserveAspectRatio="xMidYMid meet">

<g transform="translate(0.000000,525.000000) scale(0.100000,-0.100000)"
fill="#000000" stroke="none">
<path d="M2580 5220 c-337 -35 -649 -127 -937 -276 -67 -35 -147 -79 -178 -98
-30 -20 -58 -36 -61 -36 -3 0 -33 -21 -68 -47 -35 -27 -77 -57 -92 -68 -198
-142 -455 -418 -605 -650 -355 -547 -496 -1199 -395 -1830 53 -332 146 -595
323 -915 29 -53 151 -231 213 -311 143 -186 412 -429 635 -574 124 -81 391
-215 490 -247 17 -5 39 -13 50 -18 100 -43 311 -95 512 -127 153 -24 564 -24
718 0 723 114 1300 456 1736 1029 253 332 439 781 492 1193 27 207 40 378 33
440 -4 33 -11 110 -17 170 -73 823 -547 1577 -1259 2002 -303 181 -610 290
-976 348 -118 19 -492 28 -614 15z m-840 -1850 c6 -15 10 -39 8 -51 -2 -19 2
-25 22 -27 14 -2 35 -15 47 -29 l21 -26 35 22 c45 28 58 27 131 -9 53 -26 65
-29 91 -19 23 8 40 8 70 -3 48 -16 70 -62 52 -112 -9 -26 -6 -39 26 -101 19
-38 48 -97 63 -131 16 -35 42 -71 60 -85 18 -13 40 -39 48 -57 15 -31 18 -32
58 -26 24 4 58 13 76 22 39 17 47 11 58 -44 7 -37 -32 -107 -54 -99 -8 3 -20
5 -29 5 -11 0 -13 7 -8 30 l7 30 -70 0 c-72 0 -102 13 -102 45 0 8 -20 30 -44
50 -26 21 -50 51 -56 70 -6 18 -18 39 -26 45 -7 7 -14 22 -14 34 0 12 -25 64
-55 115 -30 52 -58 104 -61 116 -4 17 -17 25 -57 34 -29 6 -66 18 -82 27 -28
14 -31 14 -44 -5 -25 -38 -109 -23 -155 28 -11 12 -26 21 -34 21 -21 0 -72 32
-72 46 0 6 7 17 15 24 8 7 12 16 9 21 -10 16 -113 9 -174 -11 -33 -11 -70 -18
-83 -15 -30 7 -116 -48 -128 -83 -6 -16 -32 -42 -68 -65 -32 -21 -79 -58 -104
-83 -41 -42 -46 -53 -55 -116 -7 -46 -18 -78 -31 -92 -28 -29 -27 -36 12 -82
18 -21 38 -51 44 -66 7 -14 31 -40 55 -56 39 -27 52 -30 119 -31 40 0 97 7
125 16 66 20 117 12 132 -22 9 -20 17 -24 36 -19 14 3 35 3 47 -1 21 -7 22
-11 15 -91 -4 -52 -2 -85 4 -89 6 -4 24 -34 41 -67 22 -45 32 -79 35 -132 5
-65 3 -74 -20 -105 -32 -44 -33 -75 -1 -134 13 -26 27 -70 31 -99 3 -29 21
-83 40 -120 22 -43 34 -81 34 -107 l0 -41 48 7 c98 13 168 66 220 168 11 22
30 46 42 53 17 10 21 20 17 40 -3 15 -7 36 -9 46 -2 13 11 30 42 53 100 75
110 85 110 103 0 27 39 65 52 52 6 -6 17 -8 24 -5 10 4 14 -3 14 -22 0 -50
-29 -91 -95 -136 l-64 -43 6 -46 c5 -44 3 -48 -30 -76 -19 -16 -38 -40 -42
-54 -13 -42 -88 -127 -136 -153 -25 -14 -64 -28 -85 -32 -21 -4 -52 -11 -67
-17 -35 -13 -102 4 -116 30 -5 10 -9 38 -8 63 1 34 -6 56 -31 95 -23 36 -32
63 -32 93 0 26 -12 67 -30 106 -17 36 -31 72 -32 82 -4 49 4 84 27 118 20 29
23 40 14 51 -6 8 -9 27 -6 44 8 35 -14 91 -55 143 -31 39 -33 64 -13 133 6 18
2 22 -29 28 -20 4 -47 19 -60 33 l-25 26 -56 -21 c-31 -12 -62 -19 -67 -16 -6
4 -43 6 -82 6 -68 -2 -74 0 -134 41 -42 28 -65 52 -72 73 -6 17 -26 46 -45 64
-44 42 -47 88 -10 132 20 24 25 40 25 85 0 52 3 60 46 109 25 30 76 75 113
101 38 27 74 60 80 74 6 15 30 40 53 55 23 16 54 41 71 56 16 16 32 27 36 25
3 -2 18 -9 33 -16 24 -12 33 -11 75 6 35 14 73 20 140 20 91 1 91 1 103 -27z
m695 -830 l0 -35 -123 -5 c-94 -4 -125 -8 -132 -20 -14 -21 -12 -31 7 -52 13
-15 31 -18 101 -18 56 0 95 -5 117 -16 71 -33 86 -143 26 -196 -36 -32 -92
-41 -236 -36 l-100 3 -3 38 -3 37 130 0 c140 0 166 9 159 53 -5 32 -45 47
-130 47 -85 0 -120 11 -143 47 -21 32 -22 106 -1 139 29 43 68 53 206 51 l125
-2 0 -35z m379 21 c18 -20 156 -363 156 -388 0 -17 -74 -18 -88 0 -6 7 -37 82
-70 167 -32 84 -63 155 -68 157 -6 2 -36 -63 -68 -144 -76 -191 -77 -193 -126
-193 -22 0 -40 5 -40 11 0 24 145 374 162 391 26 26 118 25 142 -1z m1093 -1
c62 -37 81 -116 43 -178 -28 -45 -73 -62 -169 -62 l-80 0 -3 -77 -3 -78 -40 0
-40 0 -3 95 c-4 133 -3 134 135 138 113 3 133 12 133 53 0 41 -25 49 -151 49
l-119 0 0 40 0 40 133 0 c113 0 137 -3 164 -20z m396 7 c18 -13 167 -386 160
-399 -7 -13 -80 -9 -91 5 -5 6 -26 55 -45 107 -66 174 -83 214 -92 217 -6 1
-40 -73 -76 -165 l-65 -167 -47 -3 c-28 -2 -47 1 -47 8 0 25 152 386 167 398
22 16 114 16 136 -1z m332 -67 c28 -44 53 -80 56 -80 3 0 29 36 58 80 l52 80
49 0 c28 0 50 -2 50 -5 0 -3 -36 -56 -80 -118 l-79 -113 -3 -89 -3 -90 -42 -3
-43 -3 0 86 0 87 -80 114 c-44 63 -80 119 -80 124 0 6 21 10 48 10 l47 0 50
-80z m-1441 48 c7 -13 31 -74 52 -135 22 -62 41 -113 44 -113 3 0 28 60 55
133 l50 132 54 3 c30 2 58 -1 62 -5 5 -5 10 -93 11 -197 2 -172 0 -189 -16
-198 -12 -7 -26 -7 -43 1 -24 11 -24 12 -23 144 1 72 1 141 0 152 0 19 -13
-14 -81 -204 -29 -85 -40 -101 -70 -101 -31 0 -47 28 -95 168 l-49 143 -3
-145 c-2 -134 -4 -146 -23 -156 -11 -6 -29 -8 -39 -5 -19 6 -20 16 -20 199 0
106 3 196 7 199 3 4 30 7 59 7 45 0 56 -4 68 -22z"/>
</g>
</svg>
